PathFileType	4	(X/Y/Z)	/Users/mathieubourgeois/Desktop/Analyse/Traitement/Sujet_05/Transformed_Static_Sujet_05_Tpose.trc
DataRate	CameraRate	NumFrames	NumMarkers	Units	OrigDataRate	OrigDataStartFrame	OrigNumFrames
120.000000	120.000000	4	36	mm	120.000000	0	232
Frame#	Time	RFHD			RANE			STRN			LANI			LKNE			T10			RHUM			RWRB			C7			LFWT			LTOE			RTOE			LWRA			LBWT			RBWT			RFWT			LKNI			RKNI			RKNE			LANE			RANI			LHEE			RHEE			LHUM			LRAD			RRAD			RWRA			LWRB			LFHD			LBHD			RBHD			RSHO			LSHO			CLAV			LCAR			RCAR			
		X1	Y1	Z1	X2	Y2	Z2	X3	Y3	Z3	X4	Y4	Z4	X5	Y5	Z5	X6	Y6	Z6	X7	Y7	Z7	X8	Y8	Z8	X9	Y9	Z9	X10	Y10	Z10	X11	Y11	Z11	X12	Y12	Z12	X13	Y13	Z13	X14	Y14	Z14	X15	Y15	Z15	X16	Y16	Z16	X17	Y17	Z17	X18	Y18	Z18	X19	Y19	Z19	X20	Y20	Z20	X21	Y21	Z21	X22	Y22	Z22	X23	Y23	Z23	X24	Y24	Z24	X25	Y25	Z25	X26	Y26	Z26	X27	Y27	Z27	X28	Y28	Z28	X29	Y29	Z29	X30	Y30	Z30	X31	Y31	Z31	X32	Y32	Z32	X33	Y33	Z33	X34	Y34	Z34	X35	Y35	Z35	X36	Y36	Z36	

1	0	-715.514404296875	1635.623046875	346.7545471191404	-822.8540649414062	75.53704071044923	193.6949920654296	-628.052734375	1205.568237304688	368.8584899902343	-536.6683349609375	83.43872070312501	227.0402374267578	-463.7838745117188	480.2464904785156	255.4722747802734	-642.4841918945312	1204.544555664062	143.3070526123045	-1064.212768554688	1360.7822265625	226.2599792480466	-1297.483520507812	1438.068603515625	284.2520446777341	-641.7777709960938	1434.599609375	185.049362182617	-510.9867553710938	930.0988159179688	333.4237976074218	-472.4154357910157	34.13689041137697	385.5028381347656	-829.7576293945312	36.91386795043947	391.3197631835936	47.88766098022458	1383.152587890625	238.3562469482421	-581.6715087890625	958.0140991210938	162.3140258789061	-715.6421508789062	957.9749755859375	168.4613037109374	-750.6354370117188	922.4576416015625	342.5906677246092	-567.1939697265625	446.1668701171875	244.8545684814452	-702.5315551757812	426.065673828125	260.916534423828	-799.6717529296875	476.1078491210938	261.3630371093748	-463.6355895996094	87.12964630126955	186.2854766845703	-747.2002563476562	73.54431915283205	239.7369232177734	-511.1335754394531	44.25976562500001	142.0958251953124	-771.9617919921875	38.28808975219727	147.114517211914	-206.5177459716797	1382.404907226562	194.673126220703	-217.5850067138672	1332.4912109375	246.1254272460936	-1056.862670898438	1321.88818359375	287.0332031249998	-1310.955810546875	1369.233642578125	264.5431518554685	33.45898437499997	1452.038940429688	244.2538604736327	-566.7614135742188	1647.078979492188	350.4769897460936	-552.856689453125	1571.025024414062	218.2936401367186	-685.7540893554688	1565.230590820312	190.6873626708983	-789.4583740234375	1441.451293945312	236.3739013671873	-501.6036682128906	1441.364868164062	221.4601593017577	-638.3225708007812	1380.408569335938	318.9071044921874	118.7354736328125	1438.116577148438	213.9659881591796	-1392.053100585938	1417.02685546875	245.7865600585935	
2	0.008333333333333333	-715.6838989257812	1635.575561523438	346.8392944335935	-822.85888671875	75.5461883544922	193.7060546874999	-628.1249389648438	1205.556884765625	368.8575439453124	-536.6754760742188	83.43685913085939	227.0432128906249	-463.7968444824219	480.2337646484375	255.4965362548827	-642.548095703125	1204.54248046875	143.3417816162108	-1064.25537109375	1360.913452148438	226.1363677978513	-1297.56787109375	1438.282836914062	283.8966674804685	-641.8829956054688	1434.610717773438	185.0946350097655	-511.0231323242188	930.1103515625	333.4311523437499	-472.4113769531251	34.15047454833987	385.5084228515624	-829.7532958984375	36.90268707275393	391.3103027343749	47.79256439208982	1383.051147460938	238.2164001464843	-581.6983642578125	958.0152587890625	162.2914428710936	-715.6796264648438	957.9666137695312	168.4654693603514	-750.6797485351562	922.4681396484375	342.5826721191405	-567.2147216796875	446.1552429199219	244.8782348632812	-702.5408325195312	426.0762939453125	260.9422302246093	-799.6884765625	476.1009216308594	261.3741149902342	-463.6358947753906	87.14022064208986	186.2943878173828	-747.189697265625	73.54234313964845	239.7333679199218	-511.1426696777344	44.25998306274415	142.1053161621093	-771.962890625	38.28480911254884	147.1190338134765	-206.6185607910157	1382.334838867188	194.6438598632811	-217.6786346435547	1332.50048828125	246.1654052734374	-1056.96435546875	1322.037475585938	286.9848022460936	-1311.059326171875	1369.42822265625	264.2689208984373	33.38072204589841	1451.953735351562	244.0867919921874	-566.9122924804688	1647.081176757812	350.5533752441405	-552.9857177734375	1571.068359375	218.339889526367	-685.884765625	1565.23974609375	190.7314453124998	-789.5089721679688	1441.476684570312	236.3943634033201	-501.7116088867188	1441.396606445312	221.485641479492	-638.4509887695312	1380.404541015625	318.9866943359374	118.6558456420898	1437.976440429688	213.8157653808593	-1392.130126953125	1417.231689453125	245.414367675781	
3	0.01666666666666667	-715.8594970703125	1635.530151367188	346.9034118652341	-822.8568115234375	75.53993225097658	193.6945037841796	-628.2025146484375	1205.544921875	368.8574218749999	-536.6748657226562	83.43489074707033	227.0530242919921	-463.8284606933594	480.2332153320312	255.5313720703124	-642.6006469726562	1204.56005859375	143.3659667968748	-1064.30517578125	1361.035034179688	226.0376281738279	-1297.624267578125	1438.541625976562	283.5231018066403	-641.9718627929688	1434.618286132812	185.1387786865233	-511.0617980957032	930.1202392578125	333.4300842285155	-472.4188537597657	34.14165496826174	385.5086059570312	-829.7493896484375	36.90444564819338	391.3136901855468	47.69264221191403	1382.986572265625	238.0791473388671	-581.7361450195312	957.9984741210938	162.2989196777342	-715.716552734375	957.9481201171875	168.4516296386717	-750.7196655273438	922.475341796875	342.5848693847655	-567.2371826171875	446.1568603515625	244.9065704345702	-702.5760498046875	426.0712280273438	260.9732971191405	-799.7061157226562	476.0964050292969	261.3947753906248	-463.6429748535156	87.1365203857422	186.2916259765624	-747.1974487304688	73.52539062500001	239.7374877929687	-511.1465759277344	44.25781631469727	142.1084594726562	-771.964111328125	38.28936767578126	147.1246643066405	-206.7237396240235	1382.276977539062	194.6236724853514	-217.7801513671875	1332.504028320312	246.2113800048827	-1057.075317382812	1322.232543945312	286.9208374023436	-1311.144897460938	1369.680908203125	263.9857482910154	33.29767608642575	1451.88720703125	243.9055633544921	-567.0842895507812	1647.088134765625	350.6235961914061	-553.1109619140625	1571.095458984375	218.4167022705077	-686.0009155273438	1565.234619140625	190.7767333984373	-789.57861328125	1441.4755859375	236.4035186767576	-501.8206787109375	1441.430419921875	221.5308837890624	-638.5550537109375	1380.395263671875	319.0728149414061	118.5568542480468	1437.836547851562	213.6231384277343	-1392.165161132812	1417.489135742188	244.9934082031247	
4	0.025	-715.90283203125	1635.890380859375	347.893859863281	-822.86083984375	75.53314208984376	193.7038421630858	-628.271240234375	1205.54638671875	368.8663024902343	-536.7476196289062	83.54556274414064	227.1687469482421	-463.8538513183594	480.3035583496094	255.4791717529296	-642.6634521484375	1204.573974609375	143.3778686523436	-1064.349487304688	1361.169311523438	225.8954010009763	-1297.610107421875	1439.053100585938	283.0102844238278	-642.0464477539062	1434.630004882812	185.1903076171873	-511.0801696777344	930.1209106445312	333.4094238281249	-472.4099121093751	34.14458084106447	385.5069580078124	-829.7561645507812	36.91033172607424	391.3178710937499	47.59928894042966	1382.9423828125	237.9334106445312	-582.0283813476562	957.5701293945312	162.3937225341795	-715.5968017578125	958.2406005859375	167.7252349853514	-750.7574462890625	922.48193359375	342.590362548828	-567.2549438476562	446.1547241210938	244.9252929687499	-702.5892333984375	426.0810852050781	260.9649353027343	-799.7560424804688	476.2057495117188	261.8153381347655	-463.621337890625	86.88161468505861	186.2959747314453	-747.14208984375	73.8455047607422	239.695083618164	-511.154541015625	44.26119232177735	142.1063537597656	-771.9041137695312	37.96250534057618	147.5208435058593	-206.841781616211	1382.207397460938	194.600616455078	-217.9011535644532	1332.856201171875	245.6985626220702	-1057.203002929688	1322.433837890625	286.8690490722655	-1311.350952148438	1370.228881835938	264.643859863281	33.21586990356442	1451.854248046875	243.7139587402343	-567.2653198242188	1647.084228515625	350.7150573730467	-551.6983032226562	1571.5234375	217.728073120117	-686.1394653320312	1565.225219726562	190.830612182617	-789.6261596679688	1441.513793945312	236.4111175537108	-501.9402465820312	1441.469360351562	221.5857696533202	-638.6668090820312	1380.210815429688	318.8994140624999	118.386116027832	1438.048828125	213.3037414550781	-1392.193603515625	1417.803344726562	244.6088867187497	
